# xmcd
# 
# Track frame offsets:
#     150
#     12632
#     32957
#     48652
#     75127
#     92508
#     107161
#     128817
#     144436
#     157374
# 
# Disc length: 2286
# 
# Revision: 3
# Processed by: cddbd v1.5.2PL0 Copyright (c) Steve Scherf et al.
# Submitted via: fre:ac v1.0.31
# 
DISCID=8108ec0a
DTITLE=Brian Setzer Orchestra - Don't Mess With a Big Band,CD1of2
DYEAR=2010
DGENRE=Big Band
TTITLE0=Batman
TTITLE1=Drive Like Lightning (Crash Like Thunder)
TTITLE2='49 Mercury Blues
TTITLE3=Good Rockin' Daddy
TTITLE4=Your True Love
TTITLE5=The Dirty Boogie
TTITLE6=Sleepwalk
TTITLE7=Honey Man
TTITLE8=This Cat's On A Hot Tin Roof
TTITLE9=Summertime Blues
EXTD=
EXTT0=
EXTT1=
EXTT2=
EXTT3=
EXTT4=
EXTT5=
EXTT6=
EXTT7=
EXTT8=
EXTT9=
PLAYORDER=
